<?xml version="1.0" standalone="no"?>
<!DOCTYPE svg PUBLIC "-//W3C//DTD SVG 20010904//EN"
 "http://www.w3.org/TR/2001/REC-SVG-20010904/DTD/svg10.dtd">
<svg version="1.0" xmlns="http://www.w3.org/2000/svg"
 width="216.000000pt" height="211.000000pt" viewBox="0 0 216.000000 211.000000"
 preserveAspectRatio="xMidYMid meet">
<metadata>
Created by potrace 1.16, written by Peter Selinger 2001-2019
</metadata>
<g transform="translate(0.000000,211.000000) scale(0.100000,-0.100000)"
fill="#000000" stroke="none">
<path d="M1005 1710 c-3 -5 -1 -48 5 -96 5 -48 7 -91 4 -95 -3 -5 -19 -9 -35
-9 -25 0 -35 9 -74 69 -40 63 -77 93 -92 77 -3 -3 -2 -48 3 -100 l9 -95 -61
-26 c-83 -36 -117 -74 -143 -162 -25 -82 -25 -83 -176 -163 -113 -59 -135 -76
-135 -100 0 -23 172 -188 215 -206 43 -18 101 -17 185 1 36 8 101 14 145 15
124 0 160 31 256 223 66 130 93 132 120 8 15 -70 37 -68 92 9 58 82 71 80 63
-12 l-6 -73 57 -45 c38 -30 72 -69 98 -112 22 -37 55 -83 74 -102 l33 -34 -33
-62 c-42 -79 -63 -94 -156 -115 -130 -29 -189 -62 -181 -102 11 -59 186 -71
290 -20 120 59 230 189 270 320 16 54 19 87 16 157 -4 77 -9 98 -41 163 -50
101 -148 193 -282 266 -196 106 -302 191 -410 325 -72 91 -99 114 -110 96z"/>
</g>
</svg>
